<svg xmlns="http://www.w3.org/2000/svg" viewBox="0 0 200 200" width="100%" height="100%">
  <!-- Background Circle (Soft light background for crisp visibility in both dark and light modes) -->
  <circle cx="100" cy="100" r="96" fill="#f8fafc" stroke="#e2e8f0" stroke-width="4" />

  <!-- Long Hair Behind (Sides falling down over shoulders) -->
  <path d="M 52 90 C 44 116 48 152 64 178 L 136 178 C 152 152 156 116 148 90 C 145 60 140 40 100 40 C 60 40 55 60 52 90 Z" fill="#111827" />

  <!-- Shoulders / Blazer Jacket (Solid Black) -->
  <path d="M 22 178 C 22 138 52 122 80 118 L 80 134 L 100 160 L 120 134 L 120 118 C 148 122 178 138 178 178 Z" fill="#111827" />

  <!-- Neck -->
  <path d="M 82 108 L 82 136 L 100 156 L 118 136 L 118 108 Z" fill="#ffffff" stroke="#111827" stroke-width="5" stroke-linejoin="round" />

  <!-- White Shirt Collar / Lapels (Matching user reference image) -->
  <path d="M 76 122 L 56 146 L 86 140 L 100 160 L 114 140 L 144 146 L 124 122 L 116 136 L 100 154 L 84 136 Z" fill="#ffffff" stroke="#111827" stroke-width="5" stroke-linejoin="round" />

  <!-- Face Oval (White with black stroke) -->
  <path d="M 64 78 C 64 118 78 128 100 128 C 122 128 136 118 136 78 C 136 48 122 40 100 40 C 78 40 64 48 64 78 Z" fill="#ffffff" stroke="#111827" stroke-width="5" stroke-linejoin="round" />

  <!-- Female Styled Hair Front (Swooping bangs parted on left, sweeping across forehead) -->
  <path d="M 54 82 C 52 50 64 32 100 32 C 136 32 146 50 146 86 C 146 124 140 150 148 178 C 142 165 136 142 136 112 C 136 82 138 60 120 54 C 104 48 88 56 74 76 C 68 84 66 96 66 112 C 66 142 60 165 52 178 C 60 150 54 124 54 82 Z" fill="#111827" />
</svg>
